<svg width="72" height="72" viewBox="0 0 72 72" xmlns="http://www.w3.org/2000/svg">
    <g fill="none" fill-rule="evenodd">
        <path d="M63.64 71.726H8.086A8.087 8.087 0 0 1 0 63.64V8.086A8.088 8.088 0 0 1 8.086 0H63.64a8.084 8.084 0 0 1 8.084 8.086v55.555a8.083 8.083 0 0 1-8.084 8.085" fill="#269C55"/>
        <path d="M16.571 29.334 14.566 41.75h4.011l-2.006-12.417zm4.014 24.738-.862-5.443-6.3.003-.86 5.437-8.12.003v-.097l7.688-36.386 8.881.002L28.7 53.977l.002.095h-8.117zM30.13 54.072V17.588h8.12v29.178h9.55v7.306zM49.52 54.07V17.587l8.117.001-.003 29.177h9.554v7.307z" fill="#FEFEFE"/>
    </g>
</svg>
