<svg width="80" height="80" viewBox="0 0 80 80" fill="none" xmlns="http://www.w3.org/2000/svg">
<path d="M0 8C0 3.58172 3.58172 0 8 0H72C76.4183 0 80 3.58172 80 8V72C80 76.4183 76.4183 80 72 80H8C3.58172 80 0 76.4183 0 72V8Z" fill="#D82C35"/>
<path fill-rule="evenodd" clip-rule="evenodd" d="M16.9483 67.5626V27.8022H12.5439L18.2492 12.4336H29.2861V67.5626H16.9483Z" fill="#EEEEEE"/>
<path d="M65.6641 12.4331H34.88C34.176 12.4331 33.6641 13.0094 33.6641 13.6498V41.4405C33.6641 42.7853 34.752 43.9379 36.16 43.9379H54.9121V57.1929H46.1441V49.9571H34.1121V66.3498C34.1121 67.0542 34.688 67.5664 35.328 67.5664H65.6641C66.3681 67.5664 66.88 66.9901 66.88 66.3498V13.6498C66.88 12.9454 66.3041 12.4331 65.6641 12.4331ZM45.888 23.7671C45.888 23.0628 46.4641 22.5505 47.1041 22.5505H53.44C54.144 22.5505 54.6561 23.1268 54.6561 23.7671V33.4363C54.6561 34.1407 54.08 34.6529 53.44 34.6529H47.1041C46.4001 34.6529 45.888 34.0766 45.888 33.4363V23.7671Z" fill="white"/>
</svg>
