<svg width="72" height="72" viewBox="0 0 72 72" xmlns="http://www.w3.org/2000/svg" xmlns:xlink="http://www.w3.org/1999/xlink">
    <defs>
        <path id="0p3ob6pqqa" d="M0 .272h71.726v71.161H0z"/>
    </defs>
    <g fill="none" fill-rule="evenodd">
        <g transform="translate(0 .295)">
            <mask id="mfyx496wkb" fill="#fff">
                <use xlink:href="#0p3ob6pqqa"/>
            </mask>
            <path d="M63.638 71.433H8.087C3.62 71.433 0 67.843 0 63.413V8.294C0 3.865 3.62.272 8.087.272h55.551c4.465 0 8.088 3.592 8.088 8.023v55.117c0 4.43-3.623 8.021-8.088 8.021" fill="#E8B52E" mask="url(#mfyx496wkb)"/>
        </g>
        <path fill="#FEFEFE" d="M15.518 60.665V25.297h-3.946l5.11-13.67h9.9v49.038zM58.47 11.628H31.438a1.1 1.1 0 0 0-1.105 1.095v14.822h10.806v-6.676h7.636v5.904l-18.83 26.64v7.192h29.504v-9.568H43.663l13.777-19.19c.432-.601.776-1.124 1.038-1.575.258-.448.474-.885.647-1.317.17-.425.29-.896.355-1.41.064-.515.096-1.134.096-1.861V12.723a1.1 1.1 0 0 0-1.105-1.095"/>
    </g>
</svg>
